<svg width="28" height="29" viewBox="0 0 28 29" fill="none" xmlns="http://www.w3.org/2000/svg">
<path d="M19.7306 20.4163C20.7895 22.2036 21.8366 23.9707 22.8829 25.7358C18.2497 29.186 11.0412 29.6029 5.70485 25.6297C-0.436081 21.0538 -1.4454 13.2459 1.84236 7.62552C5.62376 1.16083 12.7 -0.268876 17.2561 0.779473C17.1329 1.03984 14.4041 6.54616 14.4041 6.54616C14.4041 6.54616 14.1884 6.55994 14.0664 6.56224C12.7197 6.61776 11.7167 6.92254 10.6416 7.46318C9.46212 8.06182 8.45133 8.93235 7.6976 9.99868C6.94386 11.065 6.47011 12.2947 6.31776 13.5802C6.1588 14.8839 6.34414 16.2055 6.85628 17.4202C7.28929 18.4471 7.90181 19.3591 8.72296 20.1291C9.98264 21.3115 11.4817 22.0436 13.2192 22.2859C14.8647 22.5157 16.4472 22.2882 17.93 21.5634C18.4863 21.292 18.9594 20.9922 19.5125 20.5809C19.583 20.5365 19.6456 20.4802 19.7306 20.4163Z" fill="white"/>
<path d="M19.7407 4.74139C19.4718 4.48409 19.2226 4.2467 18.9746 4.00778C18.8266 3.86535 18.6841 3.71717 18.5326 3.57818C18.4783 3.52802 18.4145 3.45948 18.4145 3.45948C18.4145 3.45948 18.4661 3.35304 18.4881 3.30939C18.7782 2.7431 19.2329 2.3292 19.7722 1.99991C20.3685 1.63302 21.0633 1.44635 21.7688 1.46348C22.6714 1.48071 23.5107 1.69934 24.2188 2.28823C24.7416 2.72281 25.0097 3.27417 25.0569 3.93235C25.1357 5.04273 24.6633 5.89312 23.7252 6.4866C23.1741 6.83579 22.5797 7.10573 21.9837 7.42544C21.655 7.60196 21.3739 7.75703 21.0527 8.07635C20.7701 8.39683 20.7563 8.69893 20.7563 8.69893L25.0262 8.69357V10.5433H18.4353C18.4353 10.5433 18.4353 10.417 18.4353 10.3645C18.4102 9.45552 18.5192 8.60015 18.9471 7.77464C19.3407 7.01728 19.9525 6.46286 20.6874 6.03594C21.2535 5.70704 21.8495 5.42715 22.4167 5.09978C22.7667 4.898 23.0139 4.60202 23.0119 4.1728C23.0119 3.80447 22.7364 3.4771 22.3427 3.37486C21.4145 3.13135 20.4697 3.51998 19.9785 4.34625C19.9068 4.46686 19.8336 4.58671 19.7407 4.74139Z" fill="white"/>
<path d="M28.0001 18.45L24.4018 12.4058H17.281L13.6595 18.5125H20.8326L24.3722 24.528L28.0001 18.45Z" fill="white"/>
</svg>
