<svg height="64px" width="auto" display="block" fill="#fff" viewBox="0 0 102 32">
  <path
    d="M5.8,8.5c-0.6,0-1.2,0.3-1.5,0.8C4.1,8.8,3.6,8.5,3,8.5c-0.6,0-1.1,0.3-1.3,0.8c0-0.2,0-0.5,0-0.7H0.9c0,0.4,0,0.8,0,1.2v3.4h0.8v-2.6c0-0.9,0.4-1.5,1.1-1.5c0.7,0,0.9,0.5,0.9,1.1v2.9h0.8v-2.7c0-0.8,0.4-1.4,1.1-1.4c0.7,0,0.9,0.6,0.9,1.1v2.9h0.8v-3C7.2,9,6.6,8.5,5.8,8.5z">
  </path>
  <path
    d="M12.3,12h-0.8c-0.2,0.5-0.6,0.7-1.1,0.7c-0.8,0-1.3-0.7-1.3-1.6l3.3,0c0-0.1,0-0.2,0-0.4c0-0.1,0-0.1,0-0.2c0-1.1-0.9-2-2-2C9,8.5,8.3,9.6,8.3,11c0,1.2,0.5,2.4,2,2.4C11.2,13.4,12,12.9,12.3,12z M10.4,9.1c0.8,0,1.2,0.6,1.2,1.4H9.1C9.2,9.7,9.6,9.1,10.4,9.1z">
  </path>
  <path
    d="M18.3,8.5c-0.6,0-1.2,0.3-1.5,0.8c-0.2-0.5-0.7-0.9-1.3-0.8c-0.6,0-1.1,0.3-1.3,0.8c0-0.2,0-0.5,0-0.7h-0.8c0,0.4,0,0.8,0,1.2l0,3.4h0.8v-2.6c0-0.9,0.4-1.5,1.1-1.5s0.9,0.5,0.9,1.1v2.9h0.7v-2.7c0-0.8,0.4-1.4,1.1-1.4c0.7,0,0.9,0.6,0.9,1.1v2.9h0.8v-3C19.7,8.9,19,8.5,18.3,8.5z">
  </path>
  <path
    d="M21.1,13.2h0.8c0-0.1,0-0.4,0-0.6c0.3,0.5,0.8,0.8,1.4,0.7c1.3,0,2-1.2,2-2.5c0-1.3-0.7-2.3-1.9-2.3c-0.6-0.1-1.2,0.2-1.5,0.8V6.5h-0.8l0,5.1C21.1,12.2,21.1,12.7,21.1,13.2z M23.2,9.2c0.8,0,1.3,0.7,1.3,1.7c0,1.1-0.5,1.8-1.3,1.8c-1,0-1.3-0.6-1.3-1.7C21.9,9.8,22.2,9.2,23.2,9.2z">
  </path>
  <path
    d="M28.1,13.4c0.9,0.1,1.7-0.5,1.9-1.4h-0.8c-0.2,0.5-0.6,0.7-1.1,0.7c-0.8,0-1.3-0.7-1.3-1.6l3.4,0c0-0.1,0-0.2,0-0.4c0-0.1,0-0.1,0-0.2c0-1.1-0.9-2-2-2c-1.4,0-2.1,1.1-2.1,2.5C26.1,12.2,26.6,13.4,28.1,13.4z M28.1,9.1c0.8,0,1.2,0.6,1.2,1.4h-2.4C26.9,9.7,27.3,9.1,28.1,9.1z">
  </path>
  <path
    d="M31.9,9.5c0-0.5,0-0.8,0-0.9h-0.8c0,0.2,0,0.6,0,1.2l0,3.4h0.8V11c0-1.2,0.5-1.7,1.5-1.7V8.5C32.8,8.5,32.2,8.9,31.9,9.5z">
  </path>
  <path
    d="M13.6,17.1c-0.1,0-0.2,0-0.2,0c-1.2,0.1-2.1,1.2-1.9,2.4c0,0.1,0,0.1,0,0.2c0,1.2,0.9,2.2,2.1,2.2c0.1,0,0.2,0,0.3,0c1.2-0.1,2.1-1.2,1.9-2.4c0-0.1,0-0.1,0-0.2C15.7,18.1,14.8,17.1,13.6,17.1z M13.6,21.3c-0.8,0-1.3-0.8-1.3-1.8l0,0c0-1.1,0.5-1.8,1.3-1.8s1.3,0.7,1.3,1.8S14.4,21.3,13.6,21.3z">
  </path>
  <path
    d="M17,16.7v0.5h-0.7v0.7h0.7v4l0.8,0.1v-4h0.9v-0.7h-0.9v-0.5c0-0.7,0.2-1,0.7-1c0.1,0,0.3,0,0.4,0.1v-0.7c-0.2,0-0.3-0.1-0.5-0.1C17.3,15.1,17,15.8,17,16.7z">
  </path>
  <path
    d="M22.6,15.9h-0.8v1.4H21l0,0.6h0.8v2.9c0,0.8,0.3,1.1,1,1.1c0.2,0,0.5,0,0.7-0.1v-0.6c-0.1,0-0.3,0-0.4,0c-0.4,0-0.5-0.2-0.5-0.7v-2.7h1v-0.6h-1V15.9z">
  </path>
  <path
    d="M26.7,17.1c-0.6,0-1.2,0.3-1.4,0.8v-2.7h-0.8v6.7h0.8v-2.5c0-1,0.4-1.5,1.2-1.5c0.7,0,1,0.4,1,1.2v2.8h0.8v-3C28.2,17.5,27.4,17.1,26.7,17.1z">
  </path>
  <path
    d="M31.4,17.1c-1.4,0-2.1,1.1-2.1,2.5c0,1.2,0.5,2.4,2,2.4c0.9,0,1.7-0.5,1.9-1.4h-0.8c-0.2,0.5-0.6,0.8-1.1,0.7c-0.8,0-1.3-0.7-1.3-1.6l3.3,0c0-0.1,0-0.2,0-0.4c0-0.1,0-0.1,0-0.2C33.4,18,32.5,17.1,31.4,17.1z M30.1,19.1c0.1-0.8,0.5-1.4,1.2-1.4c0.8,0,1.2,0.6,1.2,1.4H30.1z">
  </path>
  <path
    d="M100.8,11.6c-0.5-1-1.6-1.1-3.6-1.1c-1,0-2.2,0.1-3.5,0.2c0.9-1.3,1.8-2.5,2.8-3.6c0.8-1,1.1-1.3,1.1-2c-0.2-0.9-0.5-1.8-1.1-2.5c-0.7-1-1.8-1.7-3-1.8c-1.1,0-1.8,0.9-2.8,2.6c-0.3,0.5-0.6,1.2-1,1.8c-0.2-0.9-0.8-1.8-1.6-2.3c-0.7-0.6-1.5-1-2.5-1.1c-0.9,0-1.4,0.5-2.6,2.3c-0.2,0.4-0.5,0.8-0.8,1.3c-0.2-0.3-0.3-0.5-0.4-0.6c-0.8-1.1-1.7-2.3-3-2.3c-1.9,0.1-3.7,1-4.9,2.6c-0.2-1-0.7-1.9-1.6-2.6c-0.7-0.7-1.5-1.1-2.4-1.3c-0.8,0-1.5,0.6-1.9,1.3c-0.7,0.1-1.2,0.7-2.1,1.7c-0.3-0.6-0.8-1.2-1.4-1.6c-0.7-0.6-1.6-0.9-2.5-1c-0.9,0-1.7,0.5-2.2,1.2h-0.1c-0.8,0-1.4,0.5-2.5,2c-0.4-0.7-1-1.2-1.7-1.6c-0.7-0.5-1.4-0.8-2.3-0.9c-0.8,0.1-1.5,0.6-1.7,1.4c-0.2,0.5-0.4,0.9-0.5,1.4c-0.2-0.1-0.4-0.1-0.6-0.1c-1,0-1.5,0.8-2.4,2.2c-0.6,1.1-1.4,2.4-1.9,3.4c-0.6,1.2-1.3,2.4-1.8,3.4c-0.9,1.8-0.9,2-0.9,2.4c0.1,0.9,0.5,1.8,1.2,2.5c0.5,0.6,1.3,1,2.1,1c0.7,0,1.3-0.3,2-1.3c0.3,0.5,0.7,0.9,1.1,1.3c0.7,0.7,1.6,1.1,2.6,1.2c0.8,0,1.5-0.5,1.7-1.3c0.2-0.2,0.3-0.4,0.4-0.7l0.4-0.6c0.2,0.7,0.7,1.3,1.3,1.8c0.7,0.5,1.5,0.7,2.3,0.8c0,0,0.1,0,0.1,0c1.1,0,1.9-0.8,2-1.9c0-0.4,0.1-0.9,0.1-1.3c0.2,0.1,0.5,0.2,0.8,0.2c1-0.1,1.8-0.7,2.2-1.5c0.7-0.1,1.3-0.2,2-0.2c0.3,0.6,0.7,1.2,1.3,1.6c0.6,0.5,1.4,0.9,2.3,0.9c0,0,0.1,0,0.1,0c0.9,0,1.7-0.7,1.7-1.7c0-0.1,0-0.1,0-0.2l0.4,0.1l0.5,0.1c0.6,1,1.7,1.7,2.9,1.8h0.5c0,0,0,0.1,0,0.1c0.3,0.7,0.9,1.1,1.7,1.1c0.2,0,0.5,0,0.7-0.1c0.2,0.2,0.4,0.4,0.4,0.4c0.7,0.9,1.7,1.4,2.8,1.5c0.6,0,1.1-0.2,1.5-0.6c0.5-0.7,0.7-1.6,0.4-2.4c0-0.3-0.1-0.7-0.1-1.1c0.7-0.2,1.3-0.4,2-0.5c0,0.4-0.1,0.8-0.1,1.2c0.1,1,0.6,1.8,1.3,2.5c0.6,0.6,1.4,1,2.3,1.2l0,0c0.9,0.1,1.7-0.6,1.9-1.5c0.1-0.8,0.2-1.7,0.1-2.5c0-0.4,0-0.9,0.1-1.3c1.7,0.1,3.3,0.2,5,0.5c0.5,0.1,1,0.1,1.5,0.2c0.3,0,0.6-0.1,0.8-0.2c0.8-0.6,1.4-1.3,1.9-2.2C101.1,13.9,101.3,12.6,100.8,11.6z M88.2,8l0.3-0.4L88.3,8c-0.5,1.2-1,2.4-1.4,3.5c-0.6,0.1-1.1,0.2-1.6,0.3C86.2,10.5,87.1,9.2,88.2,8z M97.5,15.4c-0.3,0.2-3.6-0.6-7.8-0.6c-0.2,0.9-0.3,1.8-0.3,2.8c0,2.5-0.1,2.5-0.6,2.5s-2.2-1.3-2.2-2.1c0-0.8,0.2-1.9,0.4-3c-1.8,0.2-3.6,0.6-5.4,1.3c0,0.1,0,0.2,0,0.3c0,2.4,0.6,3.4-0.3,3.4c-1.1,0-2.4-1.8-2.5-2.3c-1.5,0.7-1.5,0.6-1.8,0.2c0-0.4,0-0.8,0.1-1.2c-0.6,0.1-1.3,0.2-2,0.2c-0.7,0-1.5-0.7-2.1-1.7c0,0,0,0-0.1,0c-1.1-0.3-2.3-0.6-3.4-0.7c0.1,0.7,0.1,1.4,0.2,2.1c0,0.6-2.5-0.6-2.5-2c0-0.1,0-0.2,0-0.3c-0.3,0-0.6-0.1-1-0.1c-1.1,0-2.2,0.2-3.3,0.4c-0.1,0.2-0.3,0.4-0.3,0.5c-0.2,0.4-0.6,0.8-0.9,0.8c-0.1,0-0.4-0.4-0.7-0.9c-0.5,0.1-1,0.2-1.4,0.3c-0.2,1.1-0.4,2.2-0.4,3.3c0,0.8-2.7,0.2-2.9-1.3c0-0.4,0.5-3,1.2-5.9c-2.4,3.5-4.9,7.2-4.9,7.4c0,0,0,0,0,0c-0.1,0.2-0.1,0.3-0.2,0.3c-0.6,0-2.6-1.5-2.6-2.3c0-1,0.5-3.5,1.1-6.1l-0.5,1.8c0,0-2.7,5.4-3.6,5.4c-0.9,0-1.8-1.5-1.8-1.9c0-0.4,4.9-9.9,5.4-9.9c0.2,0,1,0.7,1.4,0.9c0.6-2.1,1.1-3.7,1.3-3.7c0.5,0,2.6,1.2,2.6,1.7c0,0.5-2.2,6.3-2.2,7.3c0,0,0,0.1,0,0.1c1.8-2.8,5.6-8.7,6.1-8.7c0.2,0,0.5,0.1,0.8,0.1c0.5-0.8,1-1.3,1.5-1.3c0.8,0,2.6,1.3,2.6,2.1c0,0.5-2.4,3.6-3.9,7.8c0.3-0.1,0.6-0.2,1-0.2c2-3.1,5.9-8.7,6.6-8.7c0.2,0,0.5,0.1,0.7,0.3c0.3-0.9,0.6-1.5,0.9-1.5c0.5,0,2.5,1.6,2.5,2.5c0,0.7-1.7,4.2-2.4,6.7c0.5,0,1,0,1.5,0c0.2,0,0.5,0.6,0.9,1.3c0-0.3-0.1-0.5-0.1-0.8c0-2.5,2.8-8.4,6.5-8.4c0.9,0,2.8,3.1,2.8,3.7c-0.1,0.6-0.5,1.1-1,1.3c-0.3,0,0.8-1.4,0-1.4c-1.6,0-6.2,1.1-6.2,5.7c0,1.3,0.4,1.9,0.8,1.9s4-1.9,4-3.5c0-1,0.7-0.4,1.3,0.5c1.8-4.4,4.6-8.9,5-8.9c0.8,0,2.6,1.3,2.6,2.1c0,0.6-4.1,4.3-5.7,8.6c1.7-0.5,3.6-0.9,5.6-1.2c1.8-5,4.7-10.6,5.5-10.6c1.3,0,2.6,2.2,2.6,2.7c0,0.3-3.2,3.3-5.1,7.4c4.4-0.5,8.2-0.6,8.5-0.1C99.8,12.7,98,15.1,97.5,15.4z M79.3,9.8c-0.9,0.2-1.5,1-1.5,1.9c-0.3,0.5-0.7,0.8-1.1,1.1c-0.2,0.2-0.5,0.3-0.7,0.5c0-1.3,0.6-2.6,1.8-3.2c0.4-0.3,0.9-0.5,1.4-0.6C79.2,9.6,79.2,9.7,79.3,9.8z">
  </path>
  <path d="M67.6,11.3c0.1-0.9,0.2-1.8,0.3-2.8c-0.8,0.9-1.6,2-2.4,2.9C66.1,11.4,66.8,11.4,67.6,11.3z"></path>
  <path
    d="M53,30.8c-0.1,0-0.1-0.1-0.2-0.1c0,0-0.1-0.1-0.1-0.2l-0.6-1.4c-0.2-0.5-0.5-1.3-0.9-2.2h-0.6L50,28.8l-0.7,1.6c0,0.1-0.1,0.2-0.1,0.2c-0.1,0.1-0.1,0.1-0.2,0.2c-0.1,0-0.1,0.1-0.2,0.1h-0.2v0.2h1.7v-0.2c-0.2,0-0.3,0-0.5-0.1c-0.1,0-0.1-0.1-0.1-0.2c0,0,0-0.1,0-0.1c0-0.1,0-0.2,0.1-0.2l0.1-0.3c0-0.1,0.1-0.2,0.1-0.3h1.5l0.4,0.9c0,0,0,0.1,0,0.1c0,0.1-0.1,0.1-0.2,0.1c-0.1,0-0.2,0-0.4,0.1v0.2h2.3v-0.2h-0.2C53.1,30.9,53.1,30.9,53,30.8z M50,29.5l0.6-1.5l0.6,1.5L50,29.5z">
  </path>
  <path
    d="M58.7,30.3c-0.1,0.2-0.2,0.3-0.3,0.4c-0.1,0.1-0.2,0.1-0.3,0.1c-0.1,0-0.3,0-0.5,0h-0.4c-0.1,0-0.2,0-0.2-0.1c-0.1,0-0.1-0.1-0.1-0.2c0-0.1,0-0.2,0-0.3v-2.7c0-0.1,0-0.1,0-0.2c0-0.1,0.1-0.1,0.2-0.1c0.1,0,0.1,0,0.2,0h0.2V27h-2.3v0.2h0.2c0.1,0,0.1,0,0.2,0.1c0.1,0,0.1,0.1,0.2,0.1c0,0.1,0,0.1,0,0.2v3c0,0.1,0,0.1,0,0.2c0,0-0.1,0.1-0.2,0.1h-0.2h-0.2v0.2h3.9l0.1-1.3l-0.3,0C58.9,30,58.8,30.1,58.7,30.3z">
  </path>
  <path
    d="M64.5,30.3c-0.1,0.2-0.2,0.3-0.3,0.4c-0.1,0.1-0.2,0.1-0.3,0.1c-0.1,0-0.3,0-0.5,0h-0.4c-0.1,0-0.1,0-0.2-0.1c-0.1,0-0.1-0.1-0.1-0.2c0-0.1,0-0.2,0-0.3v-2.7c0-0.1,0-0.1,0-0.2c0-0.1,0.1-0.1,0.2-0.1l0.2,0h0.2V27h-2.3v0.2h0.2c0.1,0,0.2,0,0.2,0.1c0.1,0,0.2,0.2,0.2,0.3v3c0,0.1,0,0.1,0,0.2c0,0-0.1,0.1-0.1,0.1h-0.2h-0.2v0.2h3.8l0.1-1.3l-0.2,0C64.7,30,64.6,30.1,64.5,30.3z">
  </path>
  <path
    d="M67,27.2h0.2l0.2,0.1c0.1,0,0.1,0.1,0.2,0.1c0,0.1,0,0.1,0,0.2v3c0,0.1,0,0.1,0,0.2c0,0-0.1,0.1-0.2,0.1c-0.1,0-0.1,0-0.2,0h-0.3v0.2h2.3v-0.3H69c-0.1,0-0.1,0-0.2,0c-0.1,0-0.1-0.1-0.2-0.1c0-0.1,0-0.1,0-0.2v-2.9c0-0.1,0-0.1,0-0.2c0-0.1,0.1-0.1,0.2-0.1l0.2,0h0.2V27H67V27.2z">
  </path>
  <path
    d="M75.6,30.8c-0.1,0-0.1-0.1-0.2-0.1c0,0-0.1-0.1-0.1-0.2l-0.5-1.4c-0.2-0.5-0.5-1.3-0.9-2.2h-0.6l-0.8,1.8l-0.7,1.6c0,0.1-0.1,0.2-0.1,0.2c-0.1,0.1-0.1,0.1-0.2,0.2c-0.1,0-0.1,0.1-0.2,0.1h-0.2v0.2h1.7v-0.2c-0.2,0-0.3,0-0.5-0.1c-0.1,0-0.1-0.1-0.1-0.2c0,0,0-0.1,0-0.1c0-0.1,0-0.2,0.1-0.2l0.1-0.3l0.1-0.3H74l0.4,0.9c0,0,0,0.1,0,0.1c0,0.1-0.1,0.1-0.2,0.1c-0.1,0-0.2,0-0.4,0.1v0.2H76v-0.2h-0.2C75.7,30.9,75.7,30.9,75.6,30.8z M72.6,29.5l0.6-1.5l0.6,1.5L72.6,29.5z">
  </path>
  <path
    d="M81,27.2l0.3,0.1c0.1,0,0.2,0.1,0.2,0.1c0.1,0.1,0.1,0.2,0.2,0.3c0,0.2,0,0.4,0,0.6v1.6L79.4,27h-1.6v0.3c0.1,0,0.2,0,0.3,0.1c0.1,0,0.2,0.1,0.2,0.2c0.1,0.1,0.1,0.1,0.1,0.2c0,0.1,0,0.2,0,0.3v2c0,0.2,0,0.4,0,0.6c0,0.1-0.1,0.2-0.2,0.3c-0.1,0-0.2,0.1-0.2,0.1c-0.1,0-0.2,0-0.3,0v0.2h1.8v-0.2l-0.3-0.1c-0.1,0-0.2-0.1-0.2-0.1c-0.1-0.1-0.1-0.2-0.2-0.3c0-0.2,0-0.4,0-0.6v-1.9l2.6,3.2H82v-3c0-0.2,0-0.4,0-0.6c0-0.1,0.1-0.2,0.2-0.3c0.1-0.1,0.2-0.1,0.3-0.1h0.2l0-0.2H81V27.2z">
  </path>
  <path
    d="M87.6,30.6c-0.2,0.1-0.5,0.2-0.7,0.2c-0.2,0-0.3,0-0.5-0.1c-0.2-0.1-0.3-0.2-0.4-0.3c-0.1-0.2-0.2-0.4-0.2-0.6c-0.1-0.3-0.1-0.6-0.1-0.8c0-0.5,0-1,0.2-1.4c0.2-0.3,0.5-0.5,0.8-0.5c0.3,0,0.6,0.1,0.8,0.3c0.2,0.3,0.4,0.6,0.5,1h0.3v-1.5H88l-0.2,0.2c-0.2-0.1-0.3-0.1-0.5-0.2c-0.2-0.1-0.4-0.1-0.6-0.1c-0.3,0-0.6,0.1-0.9,0.2c-0.6,0.2-1,0.7-1.2,1.2c-0.2,0.6-0.2,1.2,0,1.8c0.1,0.3,0.3,0.5,0.5,0.7c0.2,0.2,0.4,0.3,0.7,0.4c0.3,0.1,0.6,0.2,0.8,0.2c0.2,0,0.4,0,0.7-0.1c0.2-0.1,0.4-0.2,0.5-0.3c0.1-0.1,0.3-0.2,0.4-0.3c0.1-0.1,0.2-0.3,0.3-0.5l-0.2-0.2C88.1,30.2,87.9,30.4,87.6,30.6z">
  </path>
  <path
    d="M93.9,30.2c-0.1,0.2-0.2,0.3-0.3,0.4c0,0-0.1,0.1-0.2,0.1l-0.2,0h-0.5h-0.3c-0.1,0-0.1,0-0.2-0.1c-0.1,0-0.1-0.1-0.1-0.2c0-0.1,0-0.2,0-0.3v-1.1h0.4c0.1,0,0.2,0,0.3,0c0.1,0,0.2,0.1,0.2,0.1c0.1,0.1,0.1,0.2,0.1,0.3c0,0.1,0.1,0.2,0.1,0.3h0.2v-1.7h-0.2c0,0.1,0,0.2-0.1,0.3c0,0.1-0.1,0.2-0.1,0.2c-0.1,0.1-0.1,0.1-0.2,0.2c-0.1,0-0.2,0-0.3,0H92v-1.6h0.9c0.1,0,0.2,0,0.2,0c0.2,0,0.3,0.1,0.4,0.3c0.1,0.1,0.2,0.3,0.3,0.5H94v-1h-3.7v0.2h0.2l0.2,0.1c0.1,0,0.1,0.1,0.1,0.1c0,0.1,0,0.1,0,0.2v3c0,0.1,0,0.1,0,0.2c0,0.1-0.1,0.1-0.1,0.1c-0.1,0-0.1,0-0.2,0h-0.2v0.2h3.9l0.1-1.3h-0.2C94.1,30,94,30.1,93.9,30.2z">
  </path>
</svg>