<svg xmlns="http://www.w3.org/2000/svg" width="20" height="20" viewBox="0 0 20 20" fill="none">
<path d="M10 19C14.9705 19 19 14.9705 19 10C19 5.02944 14.9705 1 10 1C5.02944 1 1 5.02944 1 10C1 14.9705 5.02944 19 10 19Z" stroke="#D1CDEB" style="stroke:#D1CDEB;stroke:color(display-p3 0.8196 0.8039 0.9216);stroke-opacity:1;" stroke-width="1.5" stroke-linecap="round" stroke-linejoin="round"/>
<path d="M9.95189 13.969V8.94571C9.95189 8.75532 9.87629 8.57286 9.7417 8.43827C9.60711 8.30367 9.42457 8.22806 9.23426 8.22806H8.51663" stroke="#D1CDEB" style="stroke:#D1CDEB;stroke:color(display-p3 0.8196 0.8039 0.9216);stroke-opacity:1;" stroke-width="1.5" stroke-linecap="round" stroke-linejoin="round"/>
<path d="M9.59303 5.76465C9.39486 5.76465 9.23425 5.604 9.23425 5.40584C9.23425 5.20768 9.39486 5.04703 9.59303 5.04703" stroke="#D1CDEB" style="stroke:#D1CDEB;stroke:color(display-p3 0.8196 0.8039 0.9216);stroke-opacity:1;" stroke-width="1.5" stroke-linecap="round" stroke-linejoin="round"/>
<path d="M9.59314 5.76465C9.7913 5.76465 9.95199 5.604 9.95199 5.40584C9.95199 5.20768 9.7913 5.04703 9.59314 5.04703" stroke="#D1CDEB" style="stroke:#D1CDEB;stroke:color(display-p3 0.8196 0.8039 0.9216);stroke-opacity:1;" stroke-width="1.5" stroke-linecap="round" stroke-linejoin="round"/>
<path d="M8.51663 13.9693H11.4834" stroke="#D1CDEB" style="stroke:#D1CDEB;stroke:color(display-p3 0.8196 0.8039 0.9216);stroke-opacity:1;" stroke-width="1.5" stroke-miterlimit="10" stroke-linecap="round" stroke-linejoin="round"/>
</svg>